<svg width="40" height="41" viewBox="0 0 40 41" fill="none" xmlns="http://www.w3.org/2000/svg">
<path d="M25.795 21.9834L28.32 36.1934C28.3483 36.3607 28.3248 36.5327 28.2527 36.6863C28.1806 36.8399 28.0633 36.9679 27.9166 37.053C27.7698 37.1382 27.6005 37.1765 27.4313 37.1629C27.2622 37.1492 27.1012 37.0843 26.97 36.9767L21.0033 32.4984C20.7153 32.2832 20.3654 32.1669 20.0058 32.1669C19.6463 32.1669 19.2964 32.2832 19.0083 32.4984L13.0317 36.975C12.9005 37.0824 12.7398 37.1473 12.5708 37.1609C12.4019 37.1746 12.2328 37.1364 12.0861 37.0515C11.9394 36.9666 11.8221 36.8389 11.7499 36.6856C11.6776 36.5323 11.6538 36.3606 11.6817 36.1934L14.205 21.9834M30 13.8334C30 19.3562 25.5228 23.8334 20 23.8334C14.4772 23.8334 10 19.3562 10 13.8334C10 8.31053 14.4772 3.83337 20 3.83337C25.5228 3.83337 30 8.31053 30 13.8334Z" stroke="#030303" stroke-width="3" stroke-linecap="round" stroke-linejoin="round"/>
</svg>
