<svg width="239" height="44" viewBox="0 0 239 44" fill="none" xmlns="http://www.w3.org/2000/svg">
<g clip-path="url(#clip0_9_40)">
<path fill-rule="evenodd" clip-rule="evenodd" d="M0 15.5V31.5H5C5.52527 31.5 6.04541 31.6035 6.53076 31.8045C7.01599 32.0055 7.45703 32.3001 7.82837 32.6716C8.19983 33.043 8.49451 33.484 8.69556 33.9693C8.89648 34.4546 9 34.9747 9 35.5V40.5H21L36 25.5V9.5H31C30.4747 9.5 29.9546 9.39655 29.4692 9.19553C28.984 8.99451 28.543 8.69986 28.1716 8.32843C27.8002 7.957 27.5055 7.51602 27.3044 7.03073C27.1035 6.54544 27 6.0253 27 5.5V0.5H15L0 15.5ZM17 30.5H10V19.5L19 10.5H26V21.5L17 30.5Z" fill="#0004E8"/>
<path d="M230.568 12.7458C233.094 12.7458 235.125 13.5258 236.66 15.0858C238.22 16.6211 239 18.7754 239 21.5487V33.6203H233.8V22.2545C233.8 20.6449 233.391 19.4192 232.574 18.5773C231.757 17.7106 230.643 17.2773 229.231 17.2773C227.82 17.2773 226.693 17.7106 225.851 18.5773C225.034 19.4192 224.626 20.6449 224.626 22.2545V33.6203H219.426V22.2545C219.426 20.6449 219.017 19.4192 218.2 18.5773C217.383 17.7106 216.268 17.2773 214.857 17.2773C213.421 17.2773 212.282 17.7106 211.44 18.5773C210.623 19.4192 210.214 20.6449 210.214 22.2545V33.6203H205.014V13.0429H210.214V15.5315C210.883 14.6649 211.737 13.9839 212.777 13.4887C213.842 12.9934 215.005 12.7458 216.268 12.7458C217.878 12.7458 219.314 13.0925 220.577 13.7858C221.84 14.4544 222.818 15.4201 223.511 16.683C224.18 15.4944 225.146 14.541 226.408 13.8229C227.696 13.1048 229.083 12.7458 230.568 12.7458Z" fill="#000150"/>
<path d="M201.183 13.0429V33.6203H195.946V31.0202C195.278 31.9117 194.398 32.6174 193.309 33.1374C192.244 33.6326 191.08 33.8803 189.817 33.8803C188.208 33.8803 186.784 33.546 185.546 32.8774C184.308 32.1841 183.33 31.1812 182.612 29.8688C181.918 28.5316 181.572 26.9469 181.572 25.1145V13.0429H186.772V24.3716C186.772 26.0059 187.18 27.2688 187.997 28.1602C188.815 29.0269 189.929 29.4602 191.34 29.4602C192.777 29.4602 193.903 29.0269 194.72 28.1602C195.538 27.2688 195.946 26.0059 195.946 24.3716V13.0429H201.183Z" fill="#000150"/>
<path d="M170.692 33.9546C169.008 33.9546 167.497 33.6574 166.16 33.0631C164.823 32.4441 163.758 31.6145 162.966 30.5745C162.198 29.5345 161.777 28.3831 161.703 27.1202H166.94C167.039 27.9126 167.423 28.5688 168.092 29.0888C168.785 29.6088 169.639 29.8688 170.654 29.8688C171.645 29.8688 172.413 29.6707 172.957 29.2745C173.527 28.8783 173.812 28.3707 173.812 27.7517C173.812 27.0831 173.465 26.5878 172.772 26.2659C172.103 25.9193 171.026 25.5478 169.54 25.1516C168.005 24.7802 166.742 24.3964 165.752 24.0002C164.786 23.604 163.944 22.9973 163.226 22.1802C162.532 21.363 162.186 20.2611 162.186 18.8744C162.186 17.7354 162.508 16.6954 163.152 15.7544C163.82 14.8134 164.761 14.0706 165.974 13.5258C167.213 12.981 168.661 12.7086 170.32 12.7086C172.772 12.7086 174.728 13.3277 176.189 14.5658C177.65 15.7792 178.455 17.4258 178.603 19.5059H173.626C173.552 18.6887 173.205 18.0449 172.586 17.5744C171.992 17.0792 171.187 16.8315 170.172 16.8315C169.231 16.8315 168.5 17.0049 167.98 17.3516C167.485 17.6982 167.237 18.1811 167.237 18.8001C167.237 19.4935 167.584 20.0259 168.277 20.3973C168.971 20.744 170.048 21.103 171.509 21.4744C172.994 21.8459 174.22 22.2297 175.186 22.6259C176.152 23.0221 176.981 23.6411 177.675 24.483C178.393 25.3002 178.764 26.3897 178.789 27.7517C178.789 28.9402 178.455 30.005 177.786 30.946C177.142 31.8869 176.201 32.6298 174.963 33.1746C173.75 33.6946 172.326 33.9546 170.692 33.9546Z" fill="#000150"/>
<path d="M144.144 16.0144C144.813 15.0734 145.729 14.2934 146.893 13.6744C148.081 13.0306 149.431 12.7086 150.941 12.7086C152.699 12.7086 154.284 13.142 155.696 14.0087C157.132 14.8753 158.258 16.1134 159.076 17.723C159.918 19.3078 160.338 21.1525 160.338 23.2573C160.338 25.3621 159.918 27.2316 159.076 28.8659C158.258 30.4755 157.132 31.726 155.696 32.6174C154.284 33.5088 152.699 33.9546 150.941 33.9546C149.431 33.9546 148.094 33.645 146.93 33.026C145.791 32.4069 144.862 31.6269 144.144 30.686V43.4261H138.944V13.0429H144.144V16.0144ZM155.027 23.2573C155.027 22.0192 154.767 20.9544 154.247 20.063C153.752 19.1468 153.083 18.4535 152.241 17.983C151.424 17.5125 150.533 17.2773 149.567 17.2773C148.626 17.2773 147.735 17.5249 146.893 18.0201C146.075 18.4906 145.407 19.1839 144.887 20.1001C144.392 21.0163 144.144 22.0935 144.144 23.3316C144.144 24.5697 144.392 25.6469 144.887 26.5631C145.407 27.4793 146.075 28.185 146.893 28.6802C147.735 29.1507 148.626 29.386 149.567 29.386C150.533 29.386 151.424 29.1383 152.241 28.6431C153.083 28.1478 153.752 27.4421 154.247 26.5259C154.767 25.6097 155.027 24.5202 155.027 23.2573Z" fill="#000150"/>
<path d="M132.543 10.5915C131.627 10.5915 130.86 10.3067 130.241 9.73719C129.646 9.1429 129.349 8.41242 129.349 7.54574C129.349 6.67907 129.646 5.96097 130.241 5.39144C130.86 4.79715 131.627 4.5 132.543 4.5C133.46 4.5 134.215 4.79715 134.809 5.39144C135.428 5.96097 135.738 6.67907 135.738 7.54574C135.738 8.41242 135.428 9.1429 134.809 9.73719C134.215 10.3067 133.46 10.5915 132.543 10.5915ZM135.106 13.0429V33.6203H129.906V13.0429H135.106Z" fill="#000150"/>
<path d="M116.657 33.9546C114.676 33.9546 112.894 33.5212 111.309 32.6546C109.724 31.7631 108.474 30.5126 107.557 28.9031C106.666 27.2936 106.22 25.4364 106.22 23.3316C106.22 21.2268 106.678 19.3697 107.594 17.7601C108.535 16.1506 109.811 14.9125 111.42 14.0458C113.03 13.1544 114.825 12.7086 116.806 12.7086C118.787 12.7086 120.582 13.1544 122.192 14.0458C123.801 14.9125 125.064 16.1506 125.98 17.7601C126.921 19.3697 127.392 21.2268 127.392 23.3316C127.392 25.4364 126.909 27.2936 125.943 28.9031C125.002 30.5126 123.715 31.7631 122.08 32.6546C120.471 33.5212 118.663 33.9546 116.657 33.9546ZM116.657 29.4231C117.598 29.4231 118.477 29.2002 119.295 28.7545C120.137 28.284 120.805 27.5907 121.3 26.6745C121.796 25.7583 122.043 24.644 122.043 23.3316C122.043 21.3754 121.523 19.8773 120.483 18.8373C119.468 17.7725 118.217 17.2401 116.732 17.2401C115.246 17.2401 113.996 17.7725 112.98 18.8373C111.99 19.8773 111.495 21.3754 111.495 23.3316C111.495 25.2878 111.977 26.7983 112.943 27.8631C113.934 28.9031 115.172 29.4231 116.657 29.4231Z" fill="#000150"/>
<path d="M94.2714 33.9546C92.2904 33.9546 90.5076 33.5212 88.9228 32.6546C87.338 31.7631 86.0875 30.5126 85.1713 28.9031C84.2799 27.2936 83.8342 25.4364 83.8342 23.3316C83.8342 21.2268 84.2923 19.3697 85.2085 17.7601C86.1494 16.1506 87.4247 14.9125 89.0342 14.0458C90.6438 13.1544 92.439 12.7086 94.42 12.7086C96.401 12.7086 98.1962 13.1544 99.8058 14.0458C101.415 14.9125 102.678 16.1506 103.594 17.7601C104.535 19.3697 105.006 21.2268 105.006 23.3316C105.006 25.4364 104.523 27.2936 103.557 28.9031C102.616 30.5126 101.329 31.7631 99.6943 32.6546C98.0848 33.5212 96.2772 33.9546 94.2714 33.9546ZM94.2714 29.4231C95.2124 29.4231 96.0914 29.2002 96.9086 28.7545C97.7505 28.284 98.4191 27.5907 98.9143 26.6745C99.4096 25.7583 99.6572 24.644 99.6572 23.3316C99.6572 21.3754 99.1372 19.8773 98.0972 18.8373C97.0819 17.7725 95.8314 17.2401 94.3457 17.2401C92.86 17.2401 91.6095 17.7725 90.5942 18.8373C89.6038 19.8773 89.1085 21.3754 89.1085 23.3316C89.1085 25.2878 89.5914 26.7983 90.5571 27.8631C91.5476 28.9031 92.7857 29.4231 94.2714 29.4231Z" fill="#000150"/>
<path d="M71.8854 33.9546C69.9044 33.9546 68.1216 33.5212 66.5368 32.6546C64.952 31.7631 63.7015 30.5126 62.7853 28.9031C61.8939 27.2936 61.4482 25.4364 61.4482 23.3316C61.4482 21.2268 61.9063 19.3697 62.8225 17.7601C63.7634 16.1506 65.0387 14.9125 66.6482 14.0458C68.2577 13.1544 70.053 12.7086 72.034 12.7086C74.0149 12.7086 75.8102 13.1544 77.4197 14.0458C79.0293 14.9125 80.2921 16.1506 81.2083 17.7601C82.1493 19.3697 82.6198 21.2268 82.6198 23.3316C82.6198 25.4364 82.1369 27.2936 81.1712 28.9031C80.2302 30.5126 78.9426 31.7631 77.3083 32.6546C75.6988 33.5212 73.8911 33.9546 71.8854 33.9546ZM71.8854 29.4231C72.8264 29.4231 73.7054 29.2002 74.5226 28.7545C75.3645 28.284 76.0331 27.5907 76.5283 26.6745C77.0235 25.7583 77.2712 24.644 77.2712 23.3316C77.2712 21.3754 76.7512 19.8773 75.7111 18.8373C74.6959 17.7725 73.4454 17.2401 71.9597 17.2401C70.474 17.2401 69.2235 17.7725 68.2082 18.8373C67.2177 19.8773 66.7225 21.3754 66.7225 23.3316C66.7225 25.2878 67.2054 26.7983 68.1711 27.8631C69.1616 28.9031 70.3997 29.4231 71.8854 29.4231Z" fill="#000150"/>
<path d="M52.2 29.4974H60.743V33.6202H47V7.69427H52.2V29.4974Z" fill="#000150"/>
<path d="M85.2062 36.3843C86.5234 40.3015 90.2256 43.1231 94.5867 43.1231H95.1294C100.594 43.1231 105.024 38.6932 105.024 33.2287V32.6696H99.6596V33.2287C99.6596 35.7307 97.6314 37.7589 95.1294 37.7589H94.5867C93.3116 37.7589 92.1595 37.2321 91.3363 36.3843H85.2062Z" fill="#000150"/>
</g>
<defs>
<clipPath id="clip0_9_40">
<rect width="239" height="43" fill="white" transform="translate(0 0.5)"/>
</clipPath>
</defs>
</svg>
