<svg width="48" height="48" viewBox="0 0 48 48" fill="none" xmlns="http://www.w3.org/2000/svg">
<path d="M17.0793 21.8574H23.5052C23.6631 21.8574 23.8079 21.7917 23.9393 21.6604C24.0715 21.5281 24.1378 21.3833 24.1378 21.2263C24.1378 21.0682 24.0715 20.9235 23.9393 20.7922C23.8079 20.6598 23.6631 20.5937 23.5052 20.5937H17.0793C16.9222 20.5937 16.778 20.6598 16.6466 20.7922C16.5143 20.9235 16.4481 21.0682 16.4481 21.2263C16.4481 21.3843 16.5143 21.5285 16.6466 21.6589C16.7789 21.7894 16.9232 21.8555 17.0793 21.8574ZM17.0793 18.8358H23.5052C23.6631 18.8358 23.8079 18.7701 23.9393 18.6388C24.0715 18.5074 24.1378 18.3627 24.1378 18.2047C24.1378 18.0467 24.0715 17.9019 23.9393 17.7706C23.8069 17.6392 23.6623 17.5735 23.5052 17.5735H17.0793C16.9222 17.5735 16.778 17.6392 16.6466 17.7706C16.5152 17.9019 16.4491 18.0467 16.4481 18.2047C16.4472 18.3627 16.5133 18.5074 16.6466 18.6388C16.7799 18.7701 16.9241 18.8363 17.0793 18.8373M29.684 22.8456V16.5854H30.5637C31.1977 16.5854 31.7403 16.811 32.1916 17.2622C32.6428 17.7134 32.8688 18.2566 32.8698 18.8915V19.0015H35.286C35.4887 19.0015 35.6587 19.07 35.7958 19.2071C35.9328 19.3442 36.0008 19.5141 36 19.7169C35.999 19.9197 35.9308 20.0891 35.7958 20.2253C35.6605 20.3614 35.4906 20.4295 35.286 20.4295H32.8698V20.5394C32.8698 21.1734 32.6437 21.7161 32.1916 22.1673C31.7393 22.6186 31.1967 22.8446 30.5637 22.8456H29.684ZM23.1482 27.6793H17.4363V25.1518H16.2839C15.1053 25.1518 14.0962 24.733 13.2566 23.8952C12.4169 23.0574 11.9981 22.0483 12 20.8678V18.5631C12 17.3855 12.4188 16.3774 13.2566 15.5386C14.0943 14.7 15.1034 14.2801 16.2839 14.2792H26.2797C26.9138 14.2792 27.4564 14.5053 27.9076 14.9575C28.3589 15.4097 28.5849 15.9518 28.5859 16.5839V22.8456C28.5859 23.4806 28.3597 24.0237 27.9076 24.4749C27.4554 24.9262 26.9128 25.1522 26.2797 25.1532H23.1482V27.6793ZM16.8608 33.7196C16.38 33.7196 15.9712 33.5515 15.6342 33.2155C15.2981 32.8795 15.1301 32.4711 15.1301 31.9903V30.5081C15.1301 30.0273 15.2981 29.6185 15.6342 29.2815C15.9712 28.9455 16.38 28.7774 16.8608 28.7774H23.7251C24.2058 28.7774 24.6142 28.9455 24.9503 29.2815C25.2873 29.6185 25.4558 30.0273 25.4558 30.5081V31.9903C25.4558 32.4711 25.2873 32.8795 24.9503 33.2155C24.6142 33.5525 24.2058 33.721 23.7251 33.721L16.8608 33.7196Z" fill="#030303"/>
</svg>
