<svg width="32" height="33" viewBox="0 0 32 33" fill="none" xmlns="http://www.w3.org/2000/svg">
<path fill-rule="evenodd" clip-rule="evenodd" d="M6.66669 5.83325C4.45755 5.83325 2.66669 7.62411 2.66669 9.83325V23.1666C2.66669 25.3757 4.45755 27.1666 6.66669 27.1666H25.3334C27.5425 27.1666 29.3334 25.3757 29.3334 23.1666V9.83325C29.3334 7.62411 27.5425 5.83325 25.3334 5.83325H6.66669ZM6.43404 8.52015C6.50959 8.50685 6.58733 8.49992 6.66669 8.49992H25.3334C25.4127 8.49992 25.4905 8.50685 25.566 8.52015L16 14.8975L6.43404 8.52015ZM5.33335 10.9913V23.1666C5.33335 23.903 5.93031 24.4999 6.66669 24.4999H25.3334C26.0697 24.4999 26.6667 23.903 26.6667 23.1666V10.9913L16.7396 17.6093C16.2918 17.9079 15.7083 17.9079 15.2604 17.6093L5.33335 10.9913Z" fill="white"/>
</svg>
