<svg width="48" height="48" viewBox="0 0 48 48" fill="none" xmlns="http://www.w3.org/2000/svg">
<path d="M34.7434 15.4998H13.2565C12.5655 15.4998 12 16.1283 12 16.7498C12 17.3713 12.5655 17.9993 13.2565 17.9993H13.56V20.4992H34.4705V17.9993H34.7434C35.435 17.9993 36 17.3713 36 16.7498C36 16.1283 35.435 15.4998 34.7434 15.4998ZM24 19.2598C23.653 19.2598 23.372 18.9703 23.372 18.6138C23.372 18.2573 23.653 17.9678 24 17.9678C24.3475 17.9678 24.628 18.2573 24.628 18.6138C24.628 18.9703 24.3475 19.2598 24 19.2598ZM13.56 25.4988H34.4705V21.4997H13.56V25.4988ZM24 22.8118C24.3475 22.8118 24.628 23.1008 24.628 23.4572C24.628 23.8143 24.3475 24.1033 24 24.1033C23.653 24.1033 23.372 23.8143 23.372 23.4572C23.3715 23.1008 23.653 22.8118 24 22.8118ZM13.56 28.9472V31.8542C13.56 32.2092 13.6045 32.5002 13.95 32.5002H16.462C16.8075 32.5002 16.964 32.2092 16.964 31.8542V29.9992H31.0665V31.8542C31.0665 32.2092 31.1925 32.5002 31.5375 32.5002H34.05C34.3945 32.5002 34.47 32.2092 34.47 31.8542V26.4997H13.56V28.9472ZM24 27.6558C24.3475 27.6558 24.628 27.9452 24.628 28.3013C24.628 28.6588 24.3475 28.9467 24 28.9467C23.653 28.9467 23.372 28.6588 23.372 28.3013C23.3715 27.9458 23.653 27.6558 24 27.6558Z" fill="#030303"/>
</svg>
