<svg width="22" height="22" viewBox="0 0 22 22" fill="none" xmlns="http://www.w3.org/2000/svg">
<path d="M6.08502 9V21M14.085 4.88L13.085 9H18.915C19.2255 9 19.5317 9.07229 19.8094 9.21115C20.0872 9.35 20.3287 9.55161 20.515 9.8C20.7013 10.0484 20.8272 10.3367 20.8828 10.6422C20.9383 10.9477 20.922 11.2619 20.835 11.56L18.505 19.56C18.3839 19.9754 18.1312 20.3404 17.785 20.6C17.4388 20.8596 17.0178 21 16.585 21H3.08502C2.55459 21 2.04588 20.7893 1.67081 20.4142C1.29574 20.0391 1.08502 19.5304 1.08502 19V11C1.08502 10.4696 1.29574 9.96086 1.67081 9.58579C2.04588 9.21071 2.55459 9 3.08502 9H5.84502C6.21711 8.9998 6.58176 8.89581 6.89798 8.69972C7.2142 8.50363 7.46944 8.22321 7.63502 7.89L11.085 1C11.5566 1.00584 12.0208 1.11817 12.4428 1.3286C12.8649 1.53902 13.234 1.84211 13.5224 2.2152C13.8109 2.5883 14.0113 3.02176 14.1088 3.4832C14.2062 3.94464 14.1981 4.42213 14.085 4.88Z" stroke="white" stroke-width="2" stroke-linecap="round" stroke-linejoin="round"/>
</svg>
