<svg width="33" height="33" viewBox="0 0 33 33" fill="none" xmlns="http://www.w3.org/2000/svg">
<path fill-rule="evenodd" clip-rule="evenodd" d="M16.6667 5.83341C12.9848 5.83341 10 8.81818 10 12.5001C10 16.2173 12.149 21.6565 16.6667 26.5738C21.1844 21.6565 23.3334 16.2173 23.3334 12.5001C23.3334 8.81818 20.3486 5.83341 16.6667 5.83341ZM7.33337 12.5001C7.33337 7.34542 11.512 3.16675 16.6667 3.16675C21.8214 3.16675 26 7.34542 26 12.5001C26 17.3697 23.1141 23.9383 17.6095 29.4429C17.0888 29.9636 16.2446 29.9636 15.7239 29.4429C10.2193 23.9383 7.33337 17.3697 7.33337 12.5001Z" fill="white"/>
<path fill-rule="evenodd" clip-rule="evenodd" d="M16.6667 13.8334C17.4031 13.8334 18 13.2365 18 12.5001C18 11.7637 17.4031 11.1667 16.6667 11.1667C15.9303 11.1667 15.3334 11.7637 15.3334 12.5001C15.3334 13.2365 15.9303 13.8334 16.6667 13.8334ZM16.6667 16.5001C18.8758 16.5001 20.6667 14.7092 20.6667 12.5001C20.6667 10.2909 18.8758 8.50008 16.6667 8.50008C14.4576 8.50008 12.6667 10.2909 12.6667 12.5001C12.6667 14.7092 14.4576 16.5001 16.6667 16.5001Z" fill="white"/>
</svg>
