<svg width="41" height="41" viewBox="0 0 41 41" fill="none" xmlns="http://www.w3.org/2000/svg">
<path d="M33.8333 17.1667C33.8333 25.4884 24.6016 34.155 21.5016 36.8317C21.2128 37.0489 20.8613 37.1663 20.5 37.1663C20.1386 37.1663 19.7871 37.0489 19.4983 36.8317C16.3983 34.155 7.16663 25.4884 7.16663 17.1667C7.16663 13.6305 8.57138 10.2391 11.0719 7.73862C13.5724 5.23813 16.9637 3.83337 20.5 3.83337C24.0362 3.83337 27.4276 5.23813 29.928 7.73862C32.4285 10.2391 33.8333 13.6305 33.8333 17.1667Z" stroke="#030303" stroke-width="3" stroke-linecap="round" stroke-linejoin="round"/>
<path d="M20.5 22.1667C23.2614 22.1667 25.5 19.9281 25.5 17.1667C25.5 14.4053 23.2614 12.1667 20.5 12.1667C17.7385 12.1667 15.5 14.4053 15.5 17.1667C15.5 19.9281 17.7385 22.1667 20.5 22.1667Z" stroke="#030303" stroke-width="3" stroke-linecap="round" stroke-linejoin="round"/>
</svg>
