<svg width="22" height="22" viewBox="0 0 22 22" fill="none" xmlns="http://www.w3.org/2000/svg">
<path d="M9.2 5.3L5.3 9.2M6 11C6 12.3807 4.88071 13.5 3.5 13.5C2.11929 13.5 1 12.3807 1 11C1 9.61929 2.11929 8.5 3.5 8.5C4.88071 8.5 6 9.61929 6 11ZM6 11H16M16 11C16 12.3807 17.1193 13.5 18.5 13.5C19.8807 13.5 21 12.3807 21 11C21 9.61929 19.8807 8.5 18.5 8.5C17.1193 8.5 16 9.61929 16 11ZM12.8 16.7L16.7 12.8M13.5 3.5C13.5 4.88071 12.3807 6 11 6C9.61929 6 8.5 4.88071 8.5 3.5C8.5 2.11929 9.61929 1 11 1C12.3807 1 13.5 2.11929 13.5 3.5ZM13.5 18.5C13.5 19.8807 12.3807 21 11 21C9.61929 21 8.5 19.8807 8.5 18.5C8.5 17.1193 9.61929 16 11 16C12.3807 16 13.5 17.1193 13.5 18.5Z" stroke="white" stroke-width="2" stroke-linecap="round" stroke-linejoin="round"/>
</svg>
