<svg width="33" height="33" viewBox="0 0 33 33" fill="none" xmlns="http://www.w3.org/2000/svg">
<path fill-rule="evenodd" clip-rule="evenodd" d="M6.81273 6.21991C6.43118 6.60188 6.08133 7.07042 5.85513 7.47841C5.57102 7.97707 5.36129 8.52389 5.23484 9.09241L5.16903 9.43592C4.13202 14.6972 5.44902 19.4038 9.79657 23.7204C12.6491 26.5526 14.8121 27.7164 17.7739 28.1413C18.2538 28.2102 18.7551 28.2619 19.3516 28.3061L20.578 28.3806C21.2623 28.416 22.4027 28.4728 22.7919 28.495C23.3046 28.5242 23.9829 28.4261 24.8945 28.2126L25.0326 28.1721C25.8284 27.891 26.555 27.4349 27.1635 26.8258C29.3899 24.5969 29.3899 20.9831 27.1635 18.7542L26.9651 18.5648C24.8128 16.6049 21.5215 16.587 19.3491 18.5207L19.0915 18.7538L17.715 20.1318C17.4134 20.4337 16.9384 20.4746 16.5897 20.2287C15.8642 19.717 13.9365 17.8304 13.466 17.1874C13.2102 16.8378 13.2473 16.3537 13.5535 16.0474L14.7662 14.8341L14.8699 14.7497L15.0239 14.607C15.0517 14.5802 15.08 14.5524 15.1081 14.5244C17.3988 12.2311 17.3988 8.51312 15.1081 6.21991C12.8174 3.9267 9.10343 3.9267 6.81273 6.21991ZM8.67337 8.08259C9.93646 6.81811 11.9843 6.81811 13.2474 8.08259C14.5105 9.34707 14.5105 11.3972 13.2474 12.6617C13.1693 12.7399 13.0879 12.8136 13.0035 12.8827L11.6933 14.1843C10.4687 15.4097 10.3202 17.346 11.3433 18.7442C11.9837 19.6192 14.1168 21.7069 15.0742 22.3822L15.259 22.504C16.6332 23.3498 18.4215 23.1499 19.5757 21.9944L20.8482 20.7201L20.8656 20.7113L20.9883 20.5913C22.1892 19.4159 24.1136 19.4263 25.3028 20.6169C26.5017 21.8171 26.5017 23.7629 25.3028 24.9631L25.0983 25.1505C24.8869 25.3276 24.6553 25.4735 24.4086 25.5863L24.2095 25.6664L23.8712 25.7409L23.514 25.8078C23.2453 25.8528 23.0506 25.8712 22.9415 25.865L20.2697 25.7262L19.5619 25.6802L18.9479 25.6285C18.6601 25.6007 18.398 25.5697 18.1471 25.5337C15.7761 25.1936 14.1191 24.302 11.6495 21.85C8.06111 18.2872 6.94886 14.6017 7.68206 10.3169L7.75875 9.90033C7.82826 9.4737 7.957 9.10608 8.14841 8.77002C8.26495 8.55999 8.46763 8.28856 8.67337 8.08259Z" fill="white"/>
</svg>
