<svg width="48" height="48" viewBox="0 0 48 48" fill="none" xmlns="http://www.w3.org/2000/svg">
<path d="M34.7079 13.5983L31.5889 10.4793C30.4414 9.33176 28.5729 9.33176 27.4254 10.4793L23.2618 14.6429L26.3808 17.7619L29.4998 14.6429L34.7079 19.8511C35.5354 19.021 36 17.8967 36 16.7247C36 15.5526 35.5354 14.4284 34.7079 13.5983ZM14.4196 26.604C15.2877 27.472 16.6853 27.472 17.5386 26.604L21.1726 22.9701L18.0536 19.8363L14.4196 23.4703C13.5516 24.3383 13.5516 25.736 14.4196 26.604Z" fill="#030303"/>
<path d="M28.4703 17.7621L27.4258 18.8066L26.3812 19.8512L21.7027 15.1727C20.8347 14.29 19.437 14.29 18.5837 15.158C18.3773 15.3619 18.2134 15.6047 18.1016 15.8724C17.9897 16.1401 17.9321 16.4274 17.9321 16.7175C17.9321 17.0076 17.9897 17.2948 18.1016 17.5625C18.2134 17.8302 18.3773 18.0731 18.5837 18.277L23.2622 22.9555L22.2176 24.0001L12.8606 33.3571C11.713 34.5047 11.713 36.3731 12.8606 37.5207C14.0082 38.6682 15.8766 38.6682 17.0242 37.5207L30.5448 24.0001C30.681 24.1363 30.8427 24.2443 31.0207 24.318C31.1986 24.3917 31.3894 24.4297 31.582 24.4297C31.7746 24.4297 31.9654 24.3917 32.1434 24.318C32.3213 24.2443 32.483 24.1363 32.6192 24.0001C32.7554 23.8638 32.8634 23.7022 32.9371 23.5241C33.0108 23.3463 33.0488 23.1555 33.0488 22.9629C33.0488 22.7703 33.0108 22.5795 32.9371 22.4014C32.8634 22.2236 32.7554 22.0619 32.6192 21.9257L28.4703 17.7621Z" fill="#030303"/>
</svg>
