<svg width="41" height="41" viewBox="0 0 41 41" fill="none" xmlns="http://www.w3.org/2000/svg">
<path d="M30.5 35.5C30.5 31.9638 29.0953 28.5724 26.5948 26.0719C24.0943 23.5714 20.7029 22.1667 17.1667 22.1667M17.1667 22.1667C13.6305 22.1667 10.2391 23.5714 7.73859 26.0719C5.2381 28.5724 3.83334 31.9638 3.83334 35.5M17.1667 22.1667C21.7691 22.1667 25.5 18.4357 25.5 13.8333C25.5 9.23096 21.7691 5.5 17.1667 5.5C12.5643 5.5 8.83334 9.23096 8.83334 13.8333C8.83334 18.4357 12.5643 22.1667 17.1667 22.1667ZM37.1667 33.8333C37.1667 28.2167 33.8333 23 30.5 20.5C31.5957 19.6779 32.4719 18.5985 33.051 17.3571C33.63 16.1158 33.8942 14.7508 33.82 13.383C33.7459 12.0152 33.3357 10.6868 32.6258 9.51533C31.9159 8.34386 30.9282 7.36544 29.75 6.66667" stroke="#030303" stroke-width="3" stroke-linecap="round" stroke-linejoin="round"/>
</svg>
