<svg width="48" height="48" viewBox="0 0 48 48" fill="none" xmlns="http://www.w3.org/2000/svg">
<path d="M36 26.6667C36 25.9333 35.4 25.3333 34.6666 25.3333H32V28H34.6666C35.4 28 36 27.4 36 26.6667ZM34.6666 30.6667H32V33.3333H34.6666C35.4 33.3333 36 32.7333 36 32C36 31.2667 35.4 30.6667 34.6666 30.6667ZM24 26.6667H21.3333V32H24C24 33.4667 25.2 34.6667 26.6666 34.6667H30.6666V24H26.6666C25.2 24 24 25.2 24 26.6667Z" fill="#030303"/>
<path d="M14.6667 25.3334C14.6667 23.8667 15.8667 22.6667 17.3333 22.6667H19.3333C21.9067 22.6667 24 20.5734 24 18C24 15.4267 21.9067 13.3334 19.3333 13.3334H14.6667C13.9333 13.3334 13.3333 13.9334 13.3333 14.6667C13.3333 15.4 13.9333 16 14.6667 16H19.3333C20.44 16 21.3333 16.8934 21.3333 18C21.3333 19.1067 20.44 20 19.3333 20H17.3333C14.3867 20 12 22.3867 12 25.3334C12 28.28 14.3867 30.6667 17.3333 30.6667H20V28H17.3333C15.8667 28 14.6667 26.8 14.6667 25.3334Z" fill="#030303"/>
</svg>
