<svg width="48" height="48" viewBox="0 0 48 48" fill="none" xmlns="http://www.w3.org/2000/svg">
<path d="M28.4211 11.3684C29.3876 11.3684 30.3177 11.7377 31.021 12.4008C31.7242 13.0639 32.1475 13.9707 32.2042 14.9356L32.2105 15.1579C33.2155 15.1579 34.1794 15.5571 34.8901 16.2678C35.6007 16.9785 36 17.9423 36 18.9474C36.0001 20.9083 35.2401 22.7929 33.8798 24.2053C32.5195 25.6176 30.6648 26.4477 28.7053 26.5213L28.4211 26.5263H23.3684L23.5579 26.5326C24.1594 26.5778 24.7248 26.8368 25.152 27.2626C25.5792 27.6884 25.84 28.2529 25.8872 28.8543L25.8947 29.0526V34.1053C25.895 34.7426 25.6542 35.3565 25.2208 35.8238C24.7875 36.2911 24.1935 36.5775 23.5579 36.6253L23.3684 36.6316H20.8421C20.2047 36.6318 19.5908 36.3911 19.1235 35.9577C18.6562 35.5243 18.3699 34.9303 18.3221 34.2947L18.3158 34.1053V29.0526C18.3156 28.4152 18.5563 27.8013 18.9897 27.3341C19.4231 26.8667 20.017 26.5804 20.6526 26.5326L20.8421 26.5263V25.2631C20.8421 24.9538 20.9558 24.6552 21.1613 24.4239C21.3669 24.1927 21.6501 24.0451 21.9575 24.0088L22.1053 24H28.4211C29.7611 24 31.0463 23.4677 31.9938 22.5201C32.9414 21.5726 33.4737 20.2874 33.4737 18.9474C33.4737 18.638 33.36 18.3393 33.1545 18.1082C32.9488 17.8769 32.6656 17.7292 32.3583 17.693L32.2105 17.6842L32.2042 17.9065C32.1498 18.8332 31.7572 19.7076 31.1008 20.364C30.4445 21.0203 29.57 21.413 28.6434 21.4674L28.4211 21.4737H15.7895C14.8229 21.4737 13.8928 21.1044 13.1896 20.4413C12.4863 19.7782 12.063 18.8714 12.0063 17.9065L12 17.6842V15.1579C11.9999 14.1913 12.3693 13.2612 13.0324 12.558C13.6955 11.8547 14.6022 11.4314 15.5672 11.3747L15.7895 11.3684H28.4211Z" fill="#030303"/>
</svg>
